<svg width="157" height="34" viewBox="0 0 184 40" xmlns="http://www.w3.org/2000/svg"><g fill="none"><path fill="#000" d="M43.193 6.737v8.772h8.456V6.737h5.123v22.772h-5.123V20h-8.456v9.509h-5.158V6.737zm24 23.158c-4.842 0-8.561-3.158-8.561-8.527 0-5.333 3.508-8.736 8.842-8.736 5.017 0 8.42 3.473 8.42 8.49 0 6-4.28 8.773-8.701 8.773zm.105-3.684c2.035 0 3.263-2 3.263-4.983 0-2.421-.947-4.947-3.263-4.947-2.42 0-3.368 2.49-3.368 4.982 0 2.807 1.158 4.948 3.368 4.948zm18.877 3.684c-4.842 0-8.526-3.158-8.526-8.527 0-5.333 3.509-8.736 8.842-8.736 5.018 0 8.421 3.473 8.421 8.49-.035 6-4.316 8.773-8.737 8.773zm.106-3.684c2.035 0 3.263-2 3.263-4.983 0-2.421-.948-4.947-3.263-4.947-2.421 0-3.369 2.49-3.369 4.982 0 2.807 1.158 4.948 3.369 4.948zm10.491-9.439v6.772c0 2.316.491 3.93 1.403 4.912.843.842 2.211 1.404 3.895 1.404 1.404 0 2.667-.21 3.298-.456l-.035-3.895c-.456.105-.807.14-1.508.14-1.51 0-2.036-.912-2.036-2.912v-5.965h3.685v-3.79h-3.685V9.79h-.035V7.965a5.016 5.016 0 0 0-5.017 5.017v3.79h.035zm52.561 0v6.772c0 2.316.492 3.93 1.404 4.912.842.842 2.245 1.404 3.895 1.404 1.403 0 2.666-.21 3.298-.456l-.035-3.895c-.456.105-.807.14-1.509.14-1.509 0-2.035-.912-2.035-2.912v-5.965h3.684v-3.79h-3.649V9.79h-.035V7.965a5.016 5.016 0 0 0-5.018 5.017v3.79zm-41.158 8.281c.948.561 2.913 1.228 4.421 1.228 1.544 0 2.211-.492 2.211-1.334 0-.877-.491-1.298-2.386-1.93-3.439-1.122-4.772-3.017-4.737-4.947 0-3.123 2.632-5.438 6.737-5.438 1.93 0 3.614.456 4.632.982l-.878 3.509c-.736-.386-2.21-.912-3.579-.912-1.263 0-1.964.49-1.964 1.333 0 .807.631 1.228 2.666 1.93 3.123 1.052 4.421 2.666 4.456 5.052 0 3.123-2.386 5.369-7.122 5.369-2.176 0-4.106-.491-5.334-1.193l.877-3.65zm29.053-.843c0 2.176.07 3.93.14 5.299h-4.456l-.245-2.316h-.106c-.631 1.018-2.21 2.702-5.157 2.702-3.369 0-5.825-2.106-5.825-7.193v-9.72h5.123v8.878c0 2.386.772 3.86 2.596 3.86 1.404 0 2.246-.983 2.562-1.79.14-.316.21-.667.21-1.123v-9.825h5.123v11.229h.035zm3.509-11.228h5.158V29.51h-5.158zm2.526-2.14c-1.72 0-2.842-1.228-2.842-2.737 0-1.544 1.158-2.737 2.912-2.737 1.755 0 2.842 1.193 2.878 2.737 0 1.509-1.123 2.737-2.948 2.737zm21.263 12c.176 2.176 2.246 3.158 4.667 3.158 1.754 0 3.158-.246 4.561-.702l.667 3.474c-1.684.702-3.754 1.053-5.965 1.053-5.614 0-8.807-3.229-8.807-8.457 0-4.175 2.632-8.807 8.351-8.807 5.333 0 7.368 4.14 7.368 8.246 0 .877-.105 1.65-.175 2.07l-10.667-.035zm6.035-3.509c0-1.228-.526-3.333-2.877-3.333-2.21 0-3.088 2-3.193 3.333h6.07zm12.702-2.561l-.14-2.316c-.035-.28 0-.667 0-1.052h-.035c-.106.35-.21.771-.316 1.087l-.807 2.21h-.456l-.772-2.245c-.105-.316-.176-.667-.28-1.052h-.036c0 .35 0 .701-.035 1.052l-.14 2.316h-.562l.316-3.79h.772l.737 2.07c.105.281.175.597.28.948h.036c.07-.35.175-.702.28-.982l.702-2.036h.737l.28 3.825h-.56v-.035zm-3.684-3.79v.492h-1.158v3.333h-.561v-3.333h-1.158v-.492h2.877zM19.93 1.79C17.965.666 15.72 0 13.298 0c-2.456 0-4.737.632-6.702 1.79A13.236 13.236 0 0 0 0 .034v13.263C-.035 27.965 11.895 39.79 26.526 39.825V.035c-2.386 0-4.666.632-6.596 1.754z"/><path d="M18.947 14.316a3.796 3.796 0 0 1-3.79-3.79c0-.386.071-.772.176-1.122a1.856 1.856 0 0 0 1.72 1.122 1.887 1.887 0 0 0 1.894-1.894c0-.772-.456-1.439-1.122-1.72.35-.105.736-.175 1.122-.175 2.106 0 3.79 1.72 3.79 3.79a3.774 3.774 0 0 1-3.79 3.789zM7.58 14.28a3.796 3.796 0 0 1-3.79-3.79c0-2.105 1.72-3.79 3.79-3.79.386 0 .772.07 1.123.176a1.855 1.855 0 0 0-1.123 1.72c0 1.052.842 1.894 1.895 1.894.772 0 1.438-.456 1.719-1.123a3.774 3.774 0 0 1-3.614 4.912zm11.403-9.439C16 4.842 13.58 7.122 13.298 10l-.035-.035-.035.035a5.66 5.66 0 0 0-5.65-5.193c-3.157 0-5.683 2.526-5.718 5.684 0 3.158 2.526 5.684 5.684 5.72a5.648 5.648 0 0 0 3.052-.878L13.228 18l2.667-2.632c.877.562 1.93.878 3.017.878 3.158 0 5.684-2.527 5.72-5.685a5.66 5.66 0 0 0-5.65-5.719z" fill="#FFF"/></g></svg>