<svg width="97" height="30" viewBox="0 0 114 35" xmlns="http://www.w3.org/2000/svg"><g fill-rule="evenodd"><path d="M40.39 13.48c0-3.386 2.46-5.75 6.928-5.75 2.727 0 4.958.874 6.167 1.73.173.122.481.419.296.97a23.802 23.802 0 0 1-.984 2.069c-.181.338-.645.293-.883.172-.86-.438-2.273-1.179-3.57-1.315a7.566 7.566 0 0 0-.99-.043c-1.142.025-2.097.423-2.433 1.299a1.546 1.546 0 0 0-.109.52c-.031 1.153 1.568 1.57 3.504 1.904 3.6.62 6.325 1.68 6.325 5.4 0 3.16-2.502 6.016-7.402 5.928-3.23-.065-5.523-1.161-6.75-2.225-.043-.036-.51-.514-.26-1.09.287-.74.771-1.588 1.151-2.038.212-.29.769-.335 1.059-.155 1.012.632 2.678 1.645 4.599 1.712.151.005.301.006.449.002 1.727-.042 2.772-.7 2.75-1.808-.018-.976-1.388-1.546-3.569-1.959-3.478-.658-6.277-1.809-6.277-5.323zm31.603 4.822c-2.453.032-4.702.706-4.767 2.63 0 1.528 1.234 2.278 2.966 2.18 1.661-.16 2.928-.884 3.487-1.844.206-.356.237-1.687.225-2.256-.003-.122-.242-.35-.346-.395-.522-.22-.907-.289-1.565-.315zm-8.162-7.756c1.147-1.03 3.421-2.635 7.046-2.55 4.784.1 7.31 2.351 7.546 7.737.097 2.222-.064 8.418-.102 9.961-.006.222-.08.375-.377.38-.788.033-2.608.02-3.444.009-.422-.02-.471-.23-.477-.45-.003-.145-.016-.572-.024-.92-.005-.184-.178-.18-.222-.132-1.122 1.203-2.96 1.784-4.914 1.784-2.97 0-5.931-1.754-5.922-5.229.009-3.558 2.522-5.313 5.282-5.727 1.768-.264 3.76-.03 5.269.573.096.039.293-.018.295-.155.006-.453-.016-1.318-.103-1.727-.221-1.044-1.088-1.883-2.91-2.11a5.582 5.582 0 0 0-1.13-.03c-1.448.113-3.19 1.247-3.911 1.671-.17.1-.436.027-.522-.084-.421-.547-1.48-2.144-1.563-2.4-.083-.254.034-.468.183-.602zm16.17 6.624c-.03-4.963 3.414-9.15 9.006-9.186 3.49-.023 6.024 1.565 6.471 2.314.09.176.044.323-.019.5-.295.627-1.041 1.836-1.573 2.522-.226.292-.472.042-.758-.149-.792-.53-2.299-1.179-3.781-1.179-2.69 0-4.692 1.852-4.67 5.259.021 3.269 1.94 5.065 4.68 5.13 1.432.037 2.82-.79 3.566-1.467.234-.206.477-.103.745.107.525.54 1.28 1.373 1.698 1.946.273.319.069.63-.03.756-1.134 1.441-3.325 2.654-6.225 2.67-6.07.044-9.082-4.243-9.11-9.223zm28.979 9c.285-.021 3.326-.443 4.26-.657.23-.053.313-.25.184-.443-.521-.785-1.892-3.013-3.327-5.008-1.32-1.835-2.711-3.448-3.161-4.069-.11-.15-.104-.3.015-.416.856-.841 4.437-4.366 5.783-5.822.521-.566.208-.81-.234-.942-.855-.256-2.238-.575-3.025-.742-.332-.07-.731-.046-1.021.254-1.346 1.26-5.454 5.4-6.68 6.637-.221.224-.35.174-.35-.145-.01-2.386-.058-12.6-.143-14.28-.006-.223-.272-.392-.422-.4-.77-.04-2.719-.052-3.486-.007-.216.025-.421.245-.44.431-.177 2.687.075 22.408.18 25.167a.37.37 0 0 0 .345.366c.766.044 2.66.041 3.544.025.435 0 .489-.308.489-.308l.065-5.292s.045-.235.118-.313a65.168 65.168 0 0 1 1.542-1.624c.088-.086.228-.08.318.042.437.592 1.683 2.516 2.838 4.235 1.061 1.578 2.052 2.98 2.121 3.078.16.229.346.238.487.234zm-51.718-.018c.267.009 2.296.006 3.195.005a.446.446 0 0 0 .47-.427c.191-3.868.11-22.285-.011-25.193-.01-.251-.117-.345-.288-.368-.772-.104-2.965-.08-3.667.105a.284.284 0 0 0-.223.275c-.172 7.496-.056 24.778-.02 25.105.036.328.207.486.544.498zM2.958 18.46c-1.25.01-2.31-.738-2.7-1.906a2.918 2.918 0 0 1 1.838-3.694l23.725-7.98a3.18 3.18 0 0 1 .867-.128c1.283-.01 2.372.755 2.772 1.947l.035.115c.444 1.558-.659 2.948-1.98 3.394L3.922 18.296c-.31.106-.636.162-.964.165zm3.955 11.716c-1.26.01-2.323-.728-2.71-1.88a2.938 2.938 0 0 1 1.836-3.728l23.726-8.054c.307-.102.624-.155.942-.158 1.264-.01 2.374.766 2.766 1.93l.036.12c.23.805.094 1.71-.362 2.424-.34.53-1.41.997-1.41.997L7.92 30.004c-.324.11-.664.169-1.007.173z"/><path d="M26.663 30.227a2.914 2.914 0 0 1-2.79-1.993L15.956 4.617l-.04-.132A2.926 2.926 0 0 1 18.7.753c.458-.004.9.1 1.317.307a2.915 2.915 0 0 1 1.468 1.689l7.918 23.614.023.076c.444 1.564-.379 3.136-1.858 3.636-.292.098-.597.15-.905.152zm-11.77 3.978a2.915 2.915 0 0 1-2.79-1.995L4.186 8.595a2.935 2.935 0 0 1 .15-2.237 2.916 2.916 0 0 1 2.59-1.625 2.913 2.913 0 0 1 2.79 1.993l7.916 23.617a2.935 2.935 0 0 1-.15 2.237 2.916 2.916 0 0 1-2.59 1.625h.001z"/><path d="M22.76 24.909l5.52-1.895-1.804-5.382-5.528 1.875 1.811 5.402zm-11.752 4.035l5.52-1.896-1.818-5.423-5.526 1.876 1.824 5.443zm7.821-15.758l5.521-1.893-1.784-5.319-5.531 1.861zM7.076 17.215l5.521-1.893-1.805-5.387-5.532 1.861 1.816 5.42z"/></g></svg>