<svg width="120" height="20" viewBox="0 0 141 24" xmlns="http://www.w3.org/2000/svg"><path d="M0 4.286h19.155V0H0zm41.146 5.203c-.742 0-1.364.17-1.866.507a4.038 4.038 0 0 0-1.228 1.309 5.672 5.672 0 0 0-.671 1.767 9.193 9.193 0 0 0 0 3.779 5.75 5.75 0 0 0 .639 1.718c.294.513.692.932 1.194 1.26.503.327 1.114.49 1.834.49 1.113 0 1.97-.31 2.57-.932.6-.622.977-1.456 1.13-2.503h4.487c-.307 2.246-1.18 3.959-2.62 5.137-1.44 1.177-3.286 1.767-5.534 1.767-1.266 0-2.429-.213-3.487-.638-1.06-.426-1.96-1.02-2.702-1.784a8.1 8.1 0 0 1-1.735-2.732c-.415-1.057-.622-2.22-.622-3.485 0-1.308.19-2.524.573-3.648.381-1.123.944-2.094 1.686-2.912a7.707 7.707 0 0 1 2.718-1.914c1.069-.458 2.292-.687 3.667-.687 1.004 0 1.97.13 2.898.393a7.74 7.74 0 0 1 2.488 1.193 6.406 6.406 0 0 1 1.785 1.997c.459.797.72 1.74.786 2.83h-4.552c-.306-1.941-1.452-2.912-3.438-2.912M54.735 0v8.802h.099c.589-.982 1.342-1.697 2.259-2.143.917-.447 1.812-.671 2.685-.671 1.244 0 2.264.17 3.061.508.797.337 1.425.806 1.883 1.406.458.6.78 1.33.966 2.192.185.862.278 1.816.278 2.863v10.406h-4.65v-9.555c0-1.395-.218-2.438-.654-3.124-.437-.688-1.212-1.032-2.325-1.032-1.266 0-2.183.377-2.75 1.13-.568.752-.852 1.99-.852 3.713v8.868h-4.65V0h4.65zm16.571 23.362L65.51 6.446h4.879l3.57 11.55h.064l3.57-11.55h4.616l-5.73 16.916zm12.017 0h4.65V6.446h-4.65zm18.447-10.503a5.403 5.403 0 0 0-.72-1.735 3.79 3.79 0 0 0-1.229-1.193c-.491-.295-1.086-.442-1.784-.442-.677 0-1.267.147-1.768.442a3.715 3.715 0 0 0-1.245 1.193 5.37 5.37 0 0 0-.72 1.735 9.014 9.014 0 0 0-.23 2.061c0 .699.077 1.375.23 2.029.152.655.393 1.233.72 1.734.327.503.742.9 1.245 1.194.5.295 1.09.442 1.768.442.698 0 1.293-.147 1.784-.442a3.76 3.76 0 0 0 1.228-1.194 5.37 5.37 0 0 0 .72-1.734c.153-.654.23-1.33.23-2.029 0-.72-.077-1.407-.23-2.061zM94.239-.001v8.509h.065a4.956 4.956 0 0 1 2.308-1.915 7.815 7.815 0 0 1 3.03-.605 6.456 6.456 0 0 1 4.763 2.127c.666.72 1.206 1.641 1.621 2.764.415 1.124.622 2.46.622 4.008 0 1.55-.207 2.886-.622 4.008-.415 1.125-.955 2.046-1.62 2.766a6.456 6.456 0 0 1-4.764 2.127c-1.245 0-2.359-.196-3.34-.59a4.234 4.234 0 0 1-2.227-1.996h-.066v2.16h-4.42V0h4.65zm24.314 10.406c-.557-.61-1.403-.916-2.538-.916-.742 0-1.358.126-1.85.376-.491.252-.884.562-1.178.933a3.412 3.412 0 0 0-.623 1.178 5.29 5.29 0 0 0-.212 1.112h7.563c-.218-1.178-.606-2.072-1.162-2.683m-5.255 8.9c.697.676 1.703 1.014 3.012 1.014.938 0 1.746-.233 2.423-.703s1.09-.966 1.244-1.49h4.093c-.655 2.03-1.659 3.48-3.013 4.353-1.353.873-2.99 1.31-4.91 1.31-1.332 0-2.533-.214-3.602-.64-1.07-.425-1.976-1.03-2.719-1.815a8.18 8.18 0 0 1-1.718-2.814c-.404-1.09-.606-2.29-.606-3.6 0-1.264.207-2.443.622-3.534a8.292 8.292 0 0 1 1.768-2.83 8.314 8.314 0 0 1 2.734-1.88c1.059-.459 2.232-.688 3.52-.688 1.44 0 2.696.278 3.765.834a7.525 7.525 0 0 1 2.637 2.241 9.223 9.223 0 0 1 1.49 3.207c.305 1.2.414 2.454.327 3.763h-12.213c.065 1.505.447 2.596 1.146 3.272m16.268-.147c.207.36.475.654.803.883.327.23.703.398 1.13.507.425.11.867.164 1.325.164.328 0 .671-.038 1.032-.115a3.49 3.49 0 0 0 .982-.36 2.23 2.23 0 0 0 .737-.654c.196-.272.294-.616.294-1.03 0-.698-.464-1.222-1.391-1.572-.929-.348-2.222-.697-3.88-1.046a22.429 22.429 0 0 1-1.981-.54 6.746 6.746 0 0 1-1.72-.818 3.975 3.975 0 0 1-1.211-1.276c-.306-.513-.459-1.14-.459-1.882 0-1.09.213-1.984.639-2.682a4.715 4.715 0 0 1 1.686-1.654 7.426 7.426 0 0 1 2.358-.85 14.532 14.532 0 0 1 2.684-.245c.918 0 1.807.087 2.67.262a7.084 7.084 0 0 1 2.308.883 5.312 5.312 0 0 1 1.686 1.653c.448.686.715 1.554.803 2.6h-4.42c-.066-.893-.405-1.499-1.016-1.816-.611-.315-1.332-.474-2.16-.474a7.93 7.93 0 0 0-.852.05 2.843 2.843 0 0 0-.835.212c-.251.11-.465.267-.639.474-.174.208-.261.487-.261.835 0 .415.151.752.458 1.014.305.262.704.475 1.195.639.491.163 1.053.31 1.686.442.633.13 1.277.272 1.932.424.676.153 1.337.339 1.981.557a6.502 6.502 0 0 1 1.719.867c.502.36.905.807 1.212 1.341.305.535.458 1.194.458 1.98 0 1.112-.224 2.045-.671 2.797a5.37 5.37 0 0 1-1.752 1.816c-.72.459-1.544.78-2.472.965a14.465 14.465 0 0 1-5.714-.016c-.94-.196-1.774-.524-2.505-.982a5.598 5.598 0 0 1-1.801-1.816c-.47-.752-.725-1.696-.77-2.83h4.42c0 .502.104.933.312 1.293M7.007 23.362h5.14V7.526h-5.14zm18.785-12.957c-.556-.61-1.403-.916-2.538-.916-.741 0-1.358.126-1.85.376-.49.252-.883.562-1.178.933a3.412 3.412 0 0 0-.622 1.178 5.29 5.29 0 0 0-.213 1.112h7.563c-.218-1.178-.606-2.072-1.162-2.683m-5.255 8.9c.698.676 1.703 1.014 3.013 1.014.938 0 1.745-.233 2.423-.703.676-.47 1.09-.966 1.243-1.49h4.093c-.655 2.03-1.658 3.48-3.012 4.353-1.354.873-2.991 1.31-4.911 1.31-1.332 0-2.533-.214-3.602-.64-1.07-.425-1.976-1.03-2.718-1.815-.742-.786-1.316-1.723-1.719-2.814-.404-1.09-.605-2.29-.605-3.6 0-1.264.206-2.443.621-3.534a8.292 8.292 0 0 1 1.768-2.83 8.314 8.314 0 0 1 2.735-1.88c1.058-.459 2.231-.688 3.52-.688 1.44 0 2.695.278 3.765.834a7.525 7.525 0 0 1 2.636 2.241 9.223 9.223 0 0 1 1.49 3.207c.306 1.2.414 2.454.328 3.763H19.39c.065 1.505.447 2.596 1.146 3.272" fill-rule="evenodd"/></svg>