<?xml version="1.0" standalone="no"?><!DOCTYPE svg PUBLIC "-//W3C//DTD SVG 1.1//EN" "http://www.w3.org/Graphics/SVG/1.1/DTD/svg11.dtd"><svg xmlns="http://www.w3.org/2000/svg" width="123.667" height="29.833" viewBox="0 0 123.667 29.833"><path fill="#323232" d="M113.034 20.873c-5.48 0-9.94-4.459-9.94-9.939V.994h19.879v9.939c0 5.481-4.459 9.94-9.939 9.94zm-8.132-18.072v8.132c0 4.483 3.646 8.132 8.132 8.132 4.483 0 8.132-3.648 8.132-8.132V2.801h-16.264z"/><path fill="#323232" d="M117.55 7.018h-9.035v1.807h1.235l-.625 5.008h1.821l.626-5.008h2.923l.626 5.008h1.821l-.626-5.008h1.234zM12.913 3.523c5.421 0 8.313 2.53 8.313 6.144 0 2.893-2.168 5.062-5.06 5.855v.072c4.518 1.12 6.144 3.759 6.144 6.541 0 3.977-2.891 6.687-8.312 6.687H2.071V28.1c2.168 0 2.168 0 2.168-2.351V6.596c0-2.35 0-2.35-2.168-2.35v-.723h10.842zM10.745 15.45c3.253 0 4.518-2.168 4.518-5.602 0-3.072-1.265-5.603-3.434-5.603h-1.807V15.45h.723zm-.723.723v11.928h2.53c2.891 0 3.795-2.893 3.795-6.145 0-3.253-1.627-5.783-4.879-5.783h-1.446zm13.951 3.795c0-6.144 5.06-9.576 9.578-9.576 4.156 0 7.915 1.807 6.83 7.95H29.684c0 4.879 2.783 6.686 5.493 6.686 3.253 0 4.699-1.807 5.421-3.071h.361c-.722 3.614-3.252 7.228-7.77 7.228-5.963-.001-9.216-4.338-9.216-9.217zm5.711-2.35h5.312c.615-2.456 1.121-6.505-1.626-6.505-2.06 0-3.542 1.916-3.686 6.505zm26.094-2.168c0-1.626-1.084-2.168-2.168-2.168-1.121 0-2.35.542-3.614 1.627V25.75c0 2.351 0 2.351 2.168 2.351v.722h-10.12v-.722c2.168 0 2.168 0 2.168-2.351V14.366c0-1.807 0-1.807-1.807-1.807v-.543l7.41-1.625h.289l-.108 3.794h.073c1.373-2.35 3.975-3.794 6.614-3.794 2.421 0 4.879 1.444 4.879 5.419v9.939c0 2.351 0 2.351 2.168 2.351v.722h-9.396V28.1c1.445 0 1.445 0 1.445-2.351V15.45zm19.264 9.577c3.253 0 4.699-1.807 5.422-3.071h.361c-.723 3.614-3.253 7.228-7.771 7.228-5.963 0-9.216-4.337-9.216-9.216 0-6.144 5.06-9.576 9.578-9.576 4.517 0 6.902 2.204 6.902 4.518 0 1.264-.578 2.529-2.747 2.529-1.807 0-2.205-1.12-2.168-1.88.18-2.638 0-4.445-2.169-4.445-2.53 0-3.686 3.361-3.686 7.554.001 4.732 2.785 6.359 5.494 6.359zm19.807-9.577c0-1.626-1.084-2.168-2.168-2.168-1.121 0-2.35.542-3.615 1.627V25.75c0 2.351 0 2.351 2.168 2.351v.722h-10.12v-.722c2.168 0 2.168 0 2.168-2.351V4.97c0-1.807 0-1.807-1.807-1.807V2.62L88.776.994h.289v13.191h.072c1.373-2.35 3.976-3.794 6.614-3.794 2.422 0 4.879 1.444 4.879 5.419v9.939c0 2.351 0 2.351 2.168 2.351v.722h-9.397V28.1c1.446 0 1.446 0 1.446-2.351V15.45z"/></svg>
