<svg width="128" height="20" viewBox="0 0 150 24" xmlns="http://www.w3.org/2000/svg"><path d="M0 0v6.314l8.815 8.828 8.82 8.83h6.303L11.967 11.984zm0 23.972h8.773l-4.386-4.387L0 15.198zM8.853 0l6.58 6.58L22.013 0zm32.253 10.808l5.607-6.454h3.753l-6.453 7.049 6.798 8.216h-3.915l-5.447-6.843-.343.344v6.5H38.13V4.353h2.976zm16.877 1.167c0 2.907 2.288 5.288 5.081 5.288 2.816 0 5.104-2.36 5.104-5.288 0-2.907-2.288-5.242-5.104-5.242-2.793 0-5.081 2.358-5.081 5.242m-3.067.045c0-4.508 3.57-8.01 8.194-8.01 4.532 0 8.125 3.524 8.125 7.988 0 4.463-3.593 7.965-8.17 7.965-4.601 0-8.149-3.456-8.149-7.943m22.67 7.623V4.033h2.06l9.293 10.62V4.377h2.975V19.94h-2.06L80.56 9.32v10.323zm24.756-8.263h.846c1.9 0 2.93-.8 2.93-2.312 0-1.511-.985-2.288-2.884-2.288h-.892v4.6zm3.364 1.808l4.806 6.431h-3.684l-4.12-6.134h-.366v6.134h-2.976V4.354h4.417c1.671 0 3.023.389 3.892 1.098.938.755 1.51 2.06 1.51 3.433 0 1.579-.664 2.93-1.784 3.662-.55.344-.87.48-1.695.64zm19.816.961l-2.15-5.493-2.22 5.493h4.37zm.915 2.402h-6.224l-1.396 3.228h-3.159l6.615-15.586h2.243l6.431 15.586h-3.204l-1.306-3.228zm13.223.483h.8c1.924 0 3.16-.344 4.076-1.214 1.03-.938 1.648-2.358 1.648-3.845 0-1.466-.618-2.884-1.648-3.8-1.03-.891-2.129-1.236-4.075-1.236h-.801v10.095zm-2.974 2.586V4.353h4.348c4.83 0 8.216 3.136 8.216 7.622a7.73 7.73 0 0 1-2.77 5.905c-1.487 1.213-3.134 1.74-5.469 1.74h-4.325z"/></svg>