<svg width="134" height="34" viewBox="0 0 159 40" xmlns="http://www.w3.org/2000/svg"><path d="M40.5 2.434h4.991l7.894 13.455 7.767-13.455h4.992l.963 28.457H61.86l-.537-19.698-6.827 11.611h-2.518l-6.87-11.312-.43 19.4h-5.036L40.5 2.433zm29.085 18.45c0-1.452.262-2.825.789-4.12a10.49 10.49 0 0 1 2.198-3.394c.938-.967 2.069-1.735 3.392-2.305 1.323-.569 2.78-.854 4.373-.854 1.593 0 3.052.285 4.374.854 1.323.57 2.454 1.338 3.393 2.305.938.968 1.67 2.1 2.197 3.394.526 1.295.79 2.668.79 4.12 0 1.45-.264 2.824-.79 4.119a10.752 10.752 0 0 1-2.197 3.415c-.94.981-2.07 1.757-3.393 2.326-1.322.569-2.78.854-4.374.854-1.593 0-3.05-.285-4.373-.854-1.323-.569-2.454-1.345-3.392-2.326a10.735 10.735 0 0 1-2.198-3.415 10.825 10.825 0 0 1-.79-4.12zm10.752 6.36c.967 0 1.807-.192 2.518-.577a5.378 5.378 0 0 0 1.77-1.515 6.653 6.653 0 0 0 1.046-2.049c.228-.74.342-1.48.342-2.22 0-.71-.114-1.444-.342-2.198a6.37 6.37 0 0 0-1.045-2.05 5.493 5.493 0 0 0-1.771-1.493c-.711-.384-1.55-.577-2.518-.577-.967 0-1.806.193-2.517.577a5.485 5.485 0 0 0-1.77 1.494 6.36 6.36 0 0 0-1.046 2.049 7.579 7.579 0 0 0-.342 2.198c0 .74.114 1.48.342 2.22.227.74.576 1.423 1.045 2.049a5.37 5.37 0 0 0 1.771 1.515c.71.385 1.55.577 2.517.577zM93.761 2.442h5.036v9.818c.34-.341.995-.725 1.962-1.152.967-.427 2.134-.64 3.5-.64 1.45 0 2.737.27 3.861.81a8.923 8.923 0 0 1 2.88 2.178c.796.91 1.401 1.992 1.814 3.244.412 1.252.618 2.576.618 3.97 0 1.509-.263 2.924-.789 4.247a10.135 10.135 0 0 1-2.262 3.458c-.98.982-2.169 1.765-3.562 2.348-1.395.583-2.96.875-4.694.875-1.736 0-3.336-.143-4.8-.427-1.466-.284-2.653-.583-3.564-.896V2.442zm5.036 24.375c.398.143.81.25 1.237.32.427.071 1.095.107 2.006.107 1.023 0 1.92-.178 2.688-.534a6.027 6.027 0 0 0 1.963-1.43 5.953 5.953 0 0 0 1.216-2.07c.27-.783.405-1.586.405-2.412 0-.769-.093-1.508-.277-2.22a5.685 5.685 0 0 0-.875-1.9 4.388 4.388 0 0 0-1.515-1.323c-.612-.327-1.344-.49-2.197-.49-1.537 0-2.696.39-3.478 1.173-.783.783-1.173 1.857-1.173 3.223v7.556zm54.059-15.845l-5.036 13.702-5.717-13.702h-10.33V8.068c0-1.195.46-2.113 1.043-2.753.582-.64 1.456-.96 2.452-.96.9 0 1.78.581 1.882.626l1.272-4.327a6.215 6.215 0 0 0-.86-.27A15.217 15.217 0 0 0 134.338 0c-6.452 0-7.306 5.219-7.306 7.982v2.99h-3.319v3.794h3.319V30.89h4.74V14.766h6.252l7.279 16.017s-1.132 3.101-1.666 3.774c-1.955 2.46-4.136 1.178-4.292 1.061l-.865 3.686c.198.094.401.18.614.256.753.27 1.7.405 2.838.405 1.308 0 2.39-.285 3.243-.854a7.576 7.576 0 0 0 2.155-2.198 15.284 15.284 0 0 0 1.472-2.925c.398-1.053.796-2.039 1.194-3.034l8.364-19.982h-5.504zM115.42 4.94a3.116 3.116 0 1 1 6.23-.002 3.116 3.116 0 0 1-6.23.002zm.625 25.95h5.036V10.97h-5.036v19.92zM23.39 26.879s-5.786-6.112-9.331-7.072c-3.522-1.041-11.652 1.13-11.652 1.13l1.076 5.915h8.534l7.392 4.587 3.981-4.56zm1.65-12.615l.255-8.645-5.939-1.168s-2.398 8.068-1.456 11.62c.86 3.572 6.804 9.53 6.804 9.53l4.669-3.854-4.334-7.483zM11.923 1.833L7.61 9.329.001 13.43l1.957 5.73s8.184-1.958 10.787-4.549c2.662-2.53 4.847-10.66 4.847-10.66l-5.67-2.118z"/></svg>