<svg width="152" height="32" viewBox="0 0 179 38" xmlns="http://www.w3.org/2000/svg"><path d="M163.17 6.883c1.674-1.085 3.826-1.183 5.706-.673.011 1.119 0 2.237.011 3.355-.89-.39-1.945-.651-2.88-.26-.75.293-1.184 1.064-1.304 1.824-.141.966-.043 1.954-.076 2.931h5.727c.011-1.238-.01-2.475.022-3.713 1.293-.37 2.587-.782 3.87-1.173.01 1.629-.012 3.257.01 4.897 1.293-.022 2.587 0 3.869-.011v3.17c-1.293-.054-2.587-.01-3.89-.021.01 1.824 0 3.648 0 5.472.021 1.01-.055 2.03.064 3.04.077.597.283 1.248.848 1.563.935.521 2.12.293 2.978-.282v3.203c-1.12.488-2.37.63-3.576.542-1.152-.086-2.336-.499-3.086-1.411-.87-1.031-1.087-2.421-1.109-3.735-.01-2.801 0-5.602 0-8.403h-5.727v13.191h-3.912c0-4.397-.011-8.794 0-13.18-.902-.022-1.815 0-2.728-.011 0-1.043.01-2.085 0-3.138.902-.022 1.804-.01 2.717 0 .065-1.39-.142-2.812.271-4.17.348-1.215 1.12-2.312 2.196-3.007zm-83.78.228c.793-.119 1.641.152 2.163.771.608.673.728 1.748.271 2.54-.5.891-1.63 1.304-2.608 1.087-1.01-.185-1.858-1.13-1.815-2.183-.032-1.096.902-2.084 1.99-2.215zM49.395 7.6h5.694c1.772 4.495 3.554 8.979 5.326 13.474.456 1.129.88 2.258 1.347 3.376 2.283-5.613 4.587-11.215 6.858-16.84 1.826-.032 3.652-.01 5.477-.01v22.8c-1.315 0-2.63.01-3.945-.01.011-5.603 0-11.216.011-16.83 0-.25-.01-.499-.022-.76-.076.12-.14.24-.206.37-2.26 5.743-4.565 11.465-6.814 17.208-.935.033-1.87 0-2.815.022-2.337-5.743-4.64-11.498-6.955-17.241-.066-.12-.13-.239-.196-.348-.044 2.454-.01 4.919-.022 7.372V30.39h-3.727c-.011-7.59-.011-15.19-.011-22.79zm40.765 6.438c1.891-.543 3.923-.51 5.814.022.392.109.761.26 1.12.467-.022 1.248 0 2.497-.011 3.735-1.26-.967-2.858-1.575-4.467-1.368-1.271.12-2.488.77-3.25 1.802-.977 1.27-1.206 2.964-1.032 4.527.13 1.216.63 2.443 1.576 3.247.99.88 2.37 1.183 3.663 1.085 1.271-.152 2.478-.684 3.51-1.444.01 1.184 0 2.356.01 3.54-1.597.955-3.52 1.194-5.346 1.107-1.87-.097-3.739-.803-5.097-2.128-1.478-1.422-2.272-3.441-2.37-5.472-.097-2.106.338-4.31 1.544-6.069 1.01-1.487 2.597-2.551 4.336-3.05zm42.744-.238c1.804-.315 3.706-.087 5.412.564v3.594a6.939 6.939 0 0 0-4.108-1.216c-.728.032-1.533.336-1.87 1.031-.26.684-.086 1.585.566 1.998 1.108.738 2.434 1.053 3.586 1.726.902.51 1.782 1.173 2.239 2.128.858 1.792.5 4.17-1.022 5.505-1.445 1.346-3.532 1.726-5.445 1.65-1.358-.087-2.727-.358-3.977-.912.01-1.26-.011-2.519.01-3.778 1.055.76 2.261 1.313 3.554 1.53.892.142 1.87.153 2.707-.25.793-.39.945-1.53.467-2.225-.446-.532-1.098-.825-1.706-1.118-1.152-.521-2.37-.956-3.38-1.726a4.055 4.055 0 0 1-1.467-2.215c-.316-1.303-.218-2.769.543-3.898.858-1.325 2.358-2.117 3.89-2.389zm-27.072.51c1.076-.652 2.456-.706 3.63-.304-.011 1.303 0 2.605 0 3.908a4.127 4.127 0 0 0-2.641-.619c-1.109.13-1.99.978-2.446 1.955-.5 1.031-.586 2.204-.554 3.333V30.4h-3.858V14.07c1.282-.01 2.576-.01 3.858 0-.01.935 0 1.868 0 2.802.413-1.02 1.033-2.009 2.01-2.562zm-28.072-.25c1.293 0 2.597-.022 3.89.01-.01 5.44 0 10.89-.01 16.33h-3.88V14.06zm47.927 3.81a6.883 6.883 0 0 0-3.423-3.452c-1.739-.792-3.728-.9-5.597-.662-1.978.25-3.89 1.173-5.14 2.747-1.142 1.4-1.696 3.203-1.805 4.994-.152 2.106.196 4.343 1.435 6.102 1.054 1.52 2.717 2.562 4.521 2.942 1.5.315 3.076.315 4.586 0 1.76-.358 3.402-1.335 4.489-2.768 1.065-1.358 1.597-3.062 1.717-4.756.12-1.737-.055-3.54-.783-5.146zm-3.77 7.503c-.37.836-1.055 1.553-1.924 1.89-1.011.39-2.152.412-3.196.14a3.903 3.903 0 0 1-2.456-2.019c-.63-1.26-.728-2.714-.597-4.093.12-1.249.554-2.54 1.51-3.41.696-.65 1.641-.966 2.576-1.02 1.174-.076 2.423.26 3.271 1.108.902.89 1.25 2.171 1.348 3.409.087 1.346.032 2.747-.533 3.995zm35.113-7.024c-.597-1.618-1.804-3.03-3.358-3.8-1.782-.902-3.858-1.032-5.803-.793-1.576.206-3.12.803-4.326 1.857-1.467 1.259-2.325 3.116-2.586 5.016-.24 1.9-.163 3.897.62 5.678.738 1.748 2.205 3.16 3.977 3.854 1.739.684 3.673.76 5.51.467 1.87-.304 3.652-1.292 4.814-2.812 1.24-1.563 1.772-3.594 1.772-5.57.022-1.324-.141-2.66-.62-3.897zm-3.532 5.537c-.152.857-.445 1.715-1.01 2.4-.566.683-1.413 1.096-2.283 1.226-.934.141-1.923.076-2.804-.304-.945-.402-1.673-1.216-2.064-2.16-.468-1.119-.555-2.367-.468-3.562.087-1.161.413-2.356 1.185-3.257.695-.847 1.771-1.303 2.858-1.368 1.109-.076 2.282.174 3.13.923.783.651 1.217 1.618 1.413 2.606a9.449 9.449 0 0 1 .043 3.496zM19.943 19.923h18.095V38H19.943zm0-19.923h18.095v18.077H19.943zM0 19.923h18.095V38H0zM0 0h18.095v18.077H0z"/></svg>