<svg width="43" height="48" viewBox="0 0 51 57" xmlns="http://www.w3.org/2000/svg"><path d="M44.015 11.197s-.047-.256-.192-.349c-.145-.093-.303-.11-.303-.11l-4.584-.343-3.375-3.347a.992.992 0 0 0-.425-.186c-.36-.07-.843.012-.93.035l-1.752.54c-.762-2.243-1.798-3.835-3.1-4.758-.967-.68-2.026-.97-3.166-.884a4.693 4.693 0 0 0-.791-.83C24.134-.058 22.499-.215 20.55.488c-5.853 2.127-8.337 9.703-9.234 13.486l-5.102 1.58s-1.199.343-1.484.68c-.308.372-.366 1.372-.366 1.372L.034 50.928 32.635 57l17.6-3.806-6.219-41.997zm-18.066-1.75l-5.637 1.744c.744-2.923 2.181-5.904 4.928-7.071.57 1.493.727 3.532.71 5.328zM21.22 2.33c1.193-.43 2.106-.413 2.799.052-3.683 1.674-5.29 5.898-5.981 9.512l-4.515 1.394C14.534 9.651 16.78 3.94 21.219 2.33zm3.16 24.56a8.21 8.21 0 0 0-.908-.383 9.723 9.723 0 0 0-1.135-.349 9.737 9.737 0 0 0-1.309-.226 9.088 9.088 0 0 0-1.443-.035c-.46.029-.873.11-1.24.238-.36.128-.68.308-.936.529a2.33 2.33 0 0 0-.605.784 2.59 2.59 0 0 0-.244 1.017c-.012.279.029.546.128.808.099.261.25.517.46.773.209.255.476.51.796.767.326.261.71.528 1.152.801.623.395 1.257.843 1.862 1.36.611.523 1.193 1.11 1.688 1.778.506.68.925 1.435 1.204 2.29.285.86.43 1.806.384 2.846-.076 1.709-.448 3.179-1.07 4.399-.611 1.203-1.455 2.15-2.473 2.835-.995.669-2.147 1.087-3.398 1.255-1.216.163-2.52.093-3.863-.203-.012 0-.024-.006-.035-.006-.012 0-.024-.006-.03-.006-.011 0-.023-.005-.034-.005-.012 0-.024-.006-.035-.006a12.657 12.657 0 0 1-1.81-.581 11.267 11.267 0 0 1-1.57-.767 10.243 10.243 0 0 1-1.28-.878 5.829 5.829 0 0 1-.926-.935l1.484-4.916c.25.21.558.454.907.698.355.25.751.5 1.17.737.43.239.884.46 1.356.64.477.18.971.325 1.454.395.43.064.815.052 1.152-.024a2.04 2.04 0 0 0 .867-.412 1.96 1.96 0 0 0 .553-.715c.128-.284.203-.598.215-.935a3.11 3.11 0 0 0-.099-.965 3.197 3.197 0 0 0-.425-.906 5.38 5.38 0 0 0-.785-.907 12.32 12.32 0 0 0-1.175-.958c-.57-.424-1.1-.878-1.577-1.377a8.568 8.568 0 0 1-1.228-1.604 7.265 7.265 0 0 1-.78-1.865 7.321 7.321 0 0 1-.215-2.185c.059-1.319.32-2.533.763-3.631a9.694 9.694 0 0 1 1.873-2.952 10.112 10.112 0 0 1 2.927-2.173 12.537 12.537 0 0 1 3.98-1.185 14.654 14.654 0 0 1 1.966-.134c.634 0 1.228.035 1.774.104.553.07 1.06.175 1.507.303.454.127.844.279 1.164.441l-2.159 6.427zm3.525-18.047c0-.22-.006-.447-.017-.674-.064-1.749-.303-3.224-.71-4.421.442.046.844.191 1.21.447 1.018.72 1.757 2.173 2.275 3.794l-2.758.854z" fill-rule="evenodd"/></svg>